<svg width="92" height="93" viewBox="0 0 92 93" fill="none" xmlns="http://www.w3.org/2000/svg">
<path d="M78.5833 84.8335H53.6667C54.8167 83.3002 55.5833 81.3835 55.5833 79.0835V78.7002C60.1833 76.7835 64.7833 74.1002 68.2333 70.2668C79.7333 57.6168 79.35 38.0668 67.4667 25.8002L69.3833 23.8835C69.7667 23.5002 70.15 23.5002 70.15 23.1168L72.8333 15.0668C73.2167 14.3002 72.8333 13.5335 72.45 13.1502L64.4 5.10016C63.6333 4.3335 62.8667 4.3335 62.1 4.3335L54.05 7.01683C53.6667 7.01683 53.6667 7.40016 53.2833 7.40016L29.1333 31.9335C28.3667 32.7002 28.3667 33.8502 29.1333 34.6168L30.6667 36.1502L23.3833 42.6668C22.6167 43.4335 22.6167 44.5835 23.3833 45.3502L31.4333 53.4002C32.2 54.1668 32.5833 54.1668 32.9667 54.1668C33.35 54.1668 34.1167 54.1668 34.5 53.7835L41.4 46.8835L42.9333 48.4168C43.3167 48.8002 43.7 48.8002 44.4667 48.8002C44.85 48.8002 45.6167 48.4168 46 48.4168L65.55 28.8668C68.6167 31.9335 70.9167 35.7668 72.0667 39.9835C76.6667 54.5502 69.3833 69.8835 55.2 75.2502C53.2833 71.8002 49.8333 69.5002 46 69.5002C41.7833 69.5002 37.95 72.1835 36.8 76.4002C32.2 75.2502 27.9833 72.9502 24.5333 69.5002H28.75C29.9 69.5002 30.6667 68.7335 30.6667 67.5835C30.6667 66.4335 29.9 65.6668 28.75 65.6668H13.4167C12.2667 65.6668 11.5 66.4335 11.5 67.5835C11.5 68.7335 12.2667 69.5002 13.4167 69.5002H19.1667C23.7667 74.8668 29.5167 78.3168 36.4167 80.2335C36.4167 82.1502 37.1833 83.6835 38.3333 84.8335H13.4167C12.2667 84.8335 11.5 85.6002 11.5 86.7502C11.5 87.9002 12.2667 88.6668 13.4167 88.6668H78.5833C79.7333 88.6668 80.5 87.9002 80.5 86.7502C80.5 85.6002 79.7333 84.8335 78.5833 84.8335ZM32.9667 49.5668L27.6 44.2002L32.9667 38.8335L38.3333 44.2002L32.9667 49.5668ZM63.6333 24.6502C63.25 24.6502 63.25 24.6502 63.6333 24.6502L44.0833 44.2002L32.9667 33.4668L55.5833 10.8502L62.1 8.55016L68.6167 15.0668L66.3167 21.5835L63.6333 24.6502ZM46 84.8335C42.9333 84.8335 40.25 82.1502 40.25 79.0835C40.25 76.0168 42.9333 73.3335 46 73.3335C49.0667 73.3335 51.75 76.0168 51.75 79.0835C51.75 82.1502 49.0667 84.8335 46 84.8335Z" fill="black"/>
<path d="M21.4665 53.4854V63.0261M16.6962 58.2557H26.2369" stroke="black" stroke-width="2" stroke-linecap="round" stroke-linejoin="round"/>
</svg>
