<svg width="112" height="112" viewBox="0 0 112 112" fill="none" xmlns="http://www.w3.org/2000/svg">
<path d="M85.75 43.25V51.75H81.5V83.625C81.5 84.3776 81.4668 85.1302 81.4004 85.8828C81.334 86.6354 81.1569 87.3216 80.8691 87.9414C80.5814 88.5612 80.1608 89.0592 79.6074 89.4355C79.054 89.8118 78.2682 90 77.25 90C76.6966 90 76.11 90.0111 75.4902 90.0332C74.8704 90.0553 74.2396 90.0443 73.5977 90C72.9557 89.9557 72.347 89.8672 71.7715 89.7344C71.196 89.6016 70.6758 89.3691 70.2109 89.0371C69.7461 88.7051 69.3919 88.2845 69.1484 87.7754C68.9049 87.2663 68.7721 86.5911 68.75 85.75H39C39 86.3477 38.8893 86.901 38.668 87.4102C38.4466 87.9193 38.1478 88.362 37.7715 88.7383C37.3952 89.1146 36.9414 89.4245 36.4102 89.668C35.8789 89.9115 35.3255 90.0221 34.75 90C33.2227 90 31.9167 89.9889 30.832 89.9668C29.7474 89.9447 28.873 89.7565 28.209 89.4023C27.5449 89.0482 27.0469 88.4284 26.7148 87.543C26.3828 86.6576 26.2279 85.3516 26.25 83.625V51.75H22V43.25H26.25V32.625C26.25 31.7396 26.416 30.9095 26.748 30.1348C27.0801 29.36 27.5339 28.6849 28.1094 28.1094C28.6849 27.5339 29.36 27.0801 30.1348 26.748C30.9095 26.416 31.7396 26.25 32.625 26.25H75.125C76.0104 26.25 76.8405 26.416 77.6152 26.748C78.39 27.0801 79.0651 27.5339 79.6406 28.1094C80.2161 28.6849 80.6699 29.36 81.002 30.1348C81.334 30.9095 81.5 31.7396 81.5 32.625V43.25H85.75ZM77.25 64.5H30.5V73H34.75V71.6719C34.75 71.1849 34.7943 70.7201 34.8828 70.2773C34.9714 69.8346 35.1706 69.4694 35.4805 69.1816C35.7904 68.8939 36.2552 68.75 36.875 68.75C37.4948 68.75 37.9486 68.8939 38.2363 69.1816C38.5241 69.4694 38.7344 69.8236 38.8672 70.2441C39 70.6647 39.0553 71.1296 39.0332 71.6387C39.0111 72.1478 39 72.6016 39 73H68.75V71.6719C68.75 71.1849 68.7943 70.7201 68.8828 70.2773C68.9714 69.8346 69.1706 69.4694 69.4805 69.1816C69.7904 68.8939 70.2552 68.75 70.875 68.75C71.4948 68.75 71.9486 68.8939 72.2363 69.1816C72.5241 69.4694 72.7344 69.8236 72.8672 70.2441C73 70.6647 73.0553 71.1296 73.0332 71.6387C73.0111 72.1478 73 72.6016 73 73H77.25V64.5ZM51.75 60.25V43.25H30.5V60.25H51.75ZM77.25 43.25H56V60.25H77.25V43.25ZM32.625 30.5C32.0495 30.5 31.5514 30.7103 31.1309 31.1309C30.7103 31.5514 30.5 32.0495 30.5 32.625V39H77.25V32.625C77.25 32.0495 77.0397 31.5514 76.6191 31.1309C76.1986 30.7103 75.7005 30.5 75.125 30.5H32.625ZM77.25 81.5V77.25H30.5V81.5H77.25Z" fill="black"/>
</svg>
