<svg width="32" height="32" viewBox="0 0 32 32" fill="none" xmlns="http://www.w3.org/2000/svg">
<path d="M15.9761 0.865479C14.7669 0.865479 13.682 1.18509 12.9453 1.65332C12.2087 2.12149 11.8549 2.68308 11.8549 3.23578C11.8549 3.78848 12.2087 4.35008 12.9453 4.81824C13.2273 4.99754 13.5607 5.15453 13.9321 5.28063C12.6709 5.76593 11.5285 6.69442 10.5926 7.97115C10.4261 8.1988 10.2692 8.43319 10.122 8.67373C11.9367 7.83349 13.9563 7.4128 15.9764 7.4128C17.9965 7.4128 20.0161 7.83349 21.8308 8.67366C21.6837 8.43312 21.5267 8.19873 21.3604 7.97108C20.4245 6.69429 19.2821 5.76573 18.021 5.28056C18.3922 5.15439 18.7251 4.99734 19.0069 4.81824C19.7435 4.35008 20.0973 3.78842 20.0973 3.23578C20.0973 2.68315 19.7435 2.12149 19.0069 1.65332C18.2702 1.18516 17.1855 0.865479 15.9761 0.865479ZM10.3882 1.63931C9.408 1.63931 8.6266 2.42071 8.6266 3.40087C8.6266 4.38103 9.40794 5.16236 10.3882 5.16236C10.653 5.16236 10.9031 5.10485 11.1275 5.00232C10.7301 4.4902 10.4878 3.89148 10.4878 3.23578C10.4878 2.6876 10.6568 2.17906 10.9443 1.7277C10.7648 1.66904 10.577 1.63916 10.3882 1.63931ZM21.5655 1.63931C21.3702 1.63931 21.183 1.67072 21.0082 1.72816C21.2955 2.17933 21.4644 2.68773 21.4644 3.23578C21.4644 3.89121 21.2223 4.4898 20.8252 5.00179C21.0575 5.10801 21.31 5.16278 21.5654 5.16236C22.5456 5.16236 23.3269 4.38109 23.3269 3.40087C23.3269 2.42058 22.5456 1.63931 21.5653 1.63931H21.5655ZM2.71093 3.48029C3.37486 4.30665 3.57979 5.07497 3.59998 5.81513L2.05205 5.50555C2.58104 6.21278 3.10339 6.83321 3.36271 8.11465C3.2799 8.98856 3.35209 9.86658 4.08076 10.8026C4.66341 11.8137 5.48937 12.4552 6.44934 12.6626C6.68282 12.7131 6.92063 12.7386 7.16201 12.744C7.23903 12.3237 7.33372 11.9069 7.44583 11.4947C7.17908 11.5121 6.93337 11.4975 6.71138 11.4495C6.14626 11.3275 5.6781 11.0211 5.26465 10.3677C5.107 6.06861 7.40984 3.8355 2.711 3.48049L2.71093 3.48029ZM29.1913 3.48029C24.4925 3.83537 26.7954 6.06841 26.6376 10.3677C26.2244 11.0209 25.7561 11.3273 25.191 11.4494C24.9832 11.4943 24.7552 11.5107 24.5081 11.4983C24.6196 11.9089 24.714 12.324 24.7907 12.7425C25.0149 12.7347 25.2359 12.7094 25.4531 12.6625C26.4132 12.4551 27.2395 11.8133 27.8222 10.8018C28.4798 9.95683 28.6015 9.15915 28.5581 8.36905C28.797 6.91223 29.3522 6.2578 29.9151 5.50535L28.301 5.82808C28.3192 5.084 28.5236 4.31137 29.1914 3.48029H29.1913ZM15.3559 8.70182C14.9658 8.71961 14.5769 8.75507 14.1907 8.8064L13.4059 23.4921L12.7496 9.07953C12.3481 9.1793 11.9518 9.29907 11.5623 9.43839L10.7296 19.8615L10.0648 10.0952C9.7577 10.2567 9.45856 10.4331 9.16848 10.6236C8.59572 12.1237 8.26628 13.8397 8.26628 15.6648C8.26628 18.6918 9.17153 21.4199 10.5925 23.3586C11.8699 25.1014 13.5323 26.195 15.3558 26.3983L15.3559 8.70182ZM16.5969 8.70182V26.3984C18.4206 26.1951 20.0829 25.1015 21.3604 23.3585C22.7815 21.4199 23.6867 18.6918 23.6867 15.6647C23.6867 13.8396 23.3574 12.1235 22.7844 10.6231C22.5664 10.4801 22.3432 10.3449 22.1153 10.2181L21.4589 19.8615L20.6333 9.52798C20.2428 9.37856 19.843 9.24907 19.4362 9.13963L18.7826 23.4922L17.9997 8.8408C17.5349 8.77006 17.0666 8.72369 16.5969 8.70188L16.5969 8.70182ZM6.63827 15.0021C5.82366 15.0131 5.02659 15.3371 4.3177 15.9552C3.10486 16.7522 2.75848 17.9976 2.4906 19.279C1.90423 20.4763 1.23286 20.9447 0.53148 21.4966L1.90363 21.5852C1.59179 22.3668 1.10012 23.0519 0.194336 23.5177C4.63027 25.1043 3.35926 20.9272 5.23271 16.7985C5.75161 16.3655 6.24474 16.2191 6.77679 16.2452C6.82048 16.2474 6.86476 16.251 6.9096 16.2559C6.90256 16.06 6.89902 15.863 6.89898 15.6648C6.89898 15.4456 6.90349 15.2278 6.91199 15.0113C6.88716 15.0096 6.86245 15.0068 6.83762 15.0056C6.7712 15.0024 6.70476 15.0012 6.63827 15.0021ZM25.2641 15.0021C25.1977 15.0012 25.1312 15.0024 25.0647 15.0056C25.0568 15.006 25.0488 15.007 25.0408 15.0074C25.0493 15.2252 25.054 15.4442 25.054 15.6648C25.0539 15.8615 25.0504 16.0571 25.0435 16.2517C25.0709 16.2493 25.0985 16.2465 25.1256 16.2452C25.6576 16.2191 26.1509 16.3656 26.6698 16.7986C28.5432 20.9273 27.2722 25.1043 31.708 23.5177C30.8034 23.0525 30.312 22.3686 30.0001 21.5883L31.4219 21.4966C30.6838 20.9157 29.9787 20.4275 29.3712 19.0838C29.1074 17.872 28.7359 16.7117 27.5847 15.9552C26.8758 15.3371 26.0788 15.0131 25.2641 15.0021ZM7.80934 20.981C7.37425 21.1648 6.98411 21.4015 6.64955 21.7048C5.89823 22.3858 5.50186 23.3961 5.52961 24.6144C5.39335 25.4591 5.98782 26.1832 6.86411 27.0123C7.30266 28.2824 7.15849 29.0918 7.05231 29.9812L8.36914 28.8242C8.60223 29.7919 8.48509 30.4882 8.39504 31.242L9.83871 29.9735C10.3021 30.5549 10.7319 31.2062 11.0825 31.9508C12.6769 27.1918 7.43693 26.797 6.92468 23.4417C7.0462 23.1112 7.23513 22.849 7.48315 22.6242C7.69432 22.4328 7.96353 22.2679 8.28667 22.1311C8.11018 21.7551 7.95091 21.3714 7.80934 20.9809V20.981ZM24.1366 21.0001C23.9945 21.3902 23.8346 21.7736 23.6576 22.1491C23.9621 22.2824 24.2174 22.4411 24.4193 22.6242C24.6674 22.849 24.8562 23.1112 24.9777 23.4417C24.4654 26.7971 19.2254 27.1918 20.8198 31.9508C21.1648 31.2185 21.5861 30.5766 22.041 30.0026L23.4515 31.242C23.3615 30.4882 23.2445 29.7919 23.4775 28.8242L24.7942 29.9812C24.6901 29.1099 24.5498 28.3157 24.9562 27.0898C25.8773 26.2283 26.5136 25.4848 26.3729 24.614C26.4006 23.3958 26.0041 22.3856 25.2528 21.7048C24.9295 21.4116 24.5541 21.1811 24.1365 21.0001L24.1366 21.0001Z" fill="#FF702E"/>
</svg>
