<svg width="28" height="28" viewBox="0 0 28 28" fill="none" xmlns="http://www.w3.org/2000/svg">
<g clip-path="url(#clip0_47_5107)">
<path d="M28 14.0864C28 6.35493 21.7315 0.0864258 14 0.0864258C6.2685 0.0864258 0 6.35493 0 14.0864C0 21.0748 5.11933 26.8661 11.8125 27.9161V18.1336H8.25767V14.0853H11.8125V11.0029C11.8125 7.49476 13.9032 5.55576 17.101 5.55576C18.6317 5.55576 20.2347 5.82993 20.2347 5.82993V9.27509H18.4683C16.7288 9.27509 16.1863 10.3543 16.1863 11.4614V14.0864H20.069L19.4483 18.1348H16.1863V27.9173C22.8807 26.8661 28 21.0736 28 14.0864Z" fill="white"/>
</g>
<defs>
<clipPath id="clip0_47_5107">
<rect width="28" height="28" fill="white"/>
</clipPath>
</defs>
</svg>
