<svg width="28" height="28" viewBox="0 0 28 28" fill="none" xmlns="http://www.w3.org/2000/svg">
<g clip-path="url(#clip0_47_5109)">
<path d="M20.8877 0C21.0556 0 21.3916 0.000365261 21.6436 0.0283203C22.2593 0.0283203 23.0713 0.0840248 23.4355 0.167969C23.9955 0.279969 24.5282 0.447875 24.9482 0.671875C25.48 0.923801 25.9278 1.25988 26.3477 1.67969C26.7396 2.07165 27.0761 2.51982 27.3281 3.05176C27.5521 3.47176 27.72 4.00445 27.832 4.56445C27.916 4.92867 27.972 5.74069 28 6.35645V20.8877C28 21.0557 27.9997 21.3925 27.9717 21.6445C27.9717 22.2605 27.916 23.0726 27.832 23.4365C27.72 23.9964 27.5521 24.5284 27.3281 24.9482C27.0762 25.48 26.7401 25.9278 26.3203 26.3477C25.9284 26.7396 25.4802 27.0761 24.9482 27.3281C24.5282 27.5521 23.9955 27.72 23.4355 27.832C23.0713 27.916 22.2593 27.972 21.6436 28H7.1123C6.94439 28 6.6084 27.9996 6.35645 27.9717C5.74068 27.9717 4.92866 27.916 4.56445 27.832C4.00445 27.72 3.47176 27.5521 3.05176 27.3281C2.51996 27.0762 2.07221 26.7401 1.65234 26.3203C1.26037 25.9283 0.923869 25.4802 0.671875 24.9482C0.447934 24.5284 0.279969 23.9964 0.167969 23.4365C0.0839903 23.0726 0.0280072 22.2605 0 21.6445V7.1123C0 6.94439 0.000365261 6.6084 0.0283203 6.35645C0.0283203 5.74069 0.0840247 4.92867 0.167969 4.56445C0.279969 4.00445 0.447875 3.47176 0.671875 3.05176C0.923801 2.51996 1.25988 2.07221 1.67969 1.65234C2.07165 1.26038 2.51982 0.923867 3.05176 0.671875C3.47176 0.447875 4.00445 0.279969 4.56445 0.167969C4.92867 0.0840247 5.74069 0.0279888 6.35645 0H20.8877ZM14.3027 3.77832C8.80157 3.77842 4.32453 8.25366 4.32227 13.7549C4.32155 15.5134 4.78088 17.2302 5.6543 18.7432L4.23828 23.9141L9.5293 22.5264C10.9871 23.3212 12.6284 23.7395 14.2988 23.7402H14.3027C19.8035 23.7402 24.2819 19.264 24.2842 13.7627C24.2851 11.0967 23.2477 8.58998 21.3633 6.7041C19.4789 4.81815 16.9727 3.77941 14.3027 3.77832ZM14.3066 5.46289C16.5223 5.46385 18.6047 6.3281 20.1709 7.89551C21.7371 9.46302 22.5995 11.5468 22.5986 13.7627C22.5965 18.3353 18.875 22.0557 14.3027 22.0557H14.2998C12.8112 22.0551 11.3508 21.655 10.0771 20.8994L9.77441 20.7197L6.63477 21.543L7.47266 18.4824L7.27539 18.1689C6.44513 16.8486 6.00627 15.3227 6.00684 13.7559C6.00864 9.18338 9.73077 5.46289 14.3066 5.46289ZM10.7695 9.14746C10.6033 9.14746 10.3331 9.20966 10.1045 9.45898C9.87591 9.70857 9.23149 10.3121 9.23145 11.5391C9.23145 12.7661 10.1253 13.9517 10.25 14.1182C10.3752 14.2852 12.0086 16.803 14.5098 17.8828C15.1048 18.1397 15.5694 18.2933 15.9316 18.4082C16.529 18.5979 17.0732 18.571 17.5029 18.5068C17.9821 18.4351 18.9775 17.9034 19.1855 17.3213C19.3933 16.7389 19.3934 16.2397 19.3311 16.1357C19.2688 16.0318 19.1028 15.9694 18.8535 15.8447C18.6042 15.72 17.3784 15.1166 17.1494 15.0332C16.9208 14.95 16.7541 14.9086 16.5879 15.1582C16.4215 15.4079 15.9443 15.9693 15.7988 16.1357C15.6534 16.3021 15.5072 16.3231 15.2578 16.1982C15.0082 16.0735 14.2051 15.8099 13.2529 14.9609C12.5116 14.2999 12.0107 13.483 11.8652 13.2334C11.7199 12.9839 11.8498 12.8489 11.9746 12.7246C12.0867 12.613 12.224 12.4336 12.3486 12.2881C12.4733 12.1426 12.5146 12.0383 12.5977 11.8721C12.6807 11.7058 12.6394 11.5603 12.5771 11.4355C12.5148 11.3108 12.0164 10.0832 11.8086 9.58398C11.6062 9.09793 11.4001 9.16391 11.2471 9.15625C11.1019 9.14904 10.9356 9.14746 10.7695 9.14746Z" fill="#FFF4F4"/>
</g>
<defs>
<clipPath id="clip0_47_5109">
<rect width="28" height="28" fill="white"/>
</clipPath>
</defs>
</svg>
